<svg width="22" height="22" viewBox="0 0 22 22" fill="none" xmlns="http://www.w3.org/2000/svg">
<path d="M4.58317 11.0007C4.58317 11.5069 4.99358 11.9173 5.49984 11.9173H9.08317C9.63546 11.9173 10.0832 12.365 10.0832 12.9173V16.5007C10.0832 17.0069 10.4936 17.4173 10.9998 17.4173C11.5061 17.4173 11.9165 17.0069 11.9165 16.5006V12.9173C11.9165 12.365 12.3642 11.9173 12.9165 11.9173H16.4998C17.0061 11.9173 17.4165 11.5069 17.4165 11.0007C17.4165 10.4944 17.0061 10.084 16.4998 10.084H12.9165C12.3642 10.084 11.9165 9.63627 11.9165 9.08398V5.50065C11.9165 4.99439 11.5061 4.58398 10.9998 4.58398C10.4936 4.58398 10.0832 4.99439 10.0832 5.50065V9.08398C10.0832 9.63627 9.63546 10.084 9.08317 10.084H5.49984C4.99358 10.084 4.58317 10.4944 4.58317 11.0007Z" fill="#495F6A"/>
</svg>
