<svg width="22" height="22" viewBox="0 0 22 22" fill="none" xmlns="http://www.w3.org/2000/svg">
<path d="M3.66634 11.0001C3.66634 10.4938 4.07675 10.0834 4.58301 10.0834H12.408C13.2989 10.0834 13.745 9.00627 13.1151 8.37631L10.3488 5.61009C9.98977 5.25101 9.9908 4.66852 10.3511 4.31071C10.7097 3.95469 11.2886 3.95572 11.6459 4.313L17.6259 10.293C18.0164 10.6835 18.0164 11.3167 17.6259 11.7072L11.6462 17.6869C11.2891 18.044 10.7102 18.0439 10.3531 17.6869C9.99629 17.33 9.99603 16.7515 10.3526 16.3944L13.1188 13.6232C13.7478 12.993 13.3015 11.9167 12.411 11.9167H4.58301C4.07675 11.9167 3.66634 11.5063 3.66634 11.0001Z" fill="#495F6A"/>
</svg>
