<svg width="22" height="22" viewBox="0 0 22 22" fill="none" xmlns="http://www.w3.org/2000/svg">
<path d="M18.3337 11.0001C18.3337 10.4938 17.9233 10.0834 17.417 10.0834H9.59204C8.70114 10.0834 8.25497 9.00627 8.88493 8.37631L11.6512 5.61009C12.0102 5.25101 12.0092 4.66852 11.6489 4.31071C11.2903 3.95469 10.7114 3.95572 10.3541 4.313L4.3741 10.293C3.98357 10.6835 3.98357 11.3167 4.3741 11.7072L10.3538 17.6869C10.7109 18.044 11.2898 18.0439 11.6469 17.6869C12.0037 17.33 12.004 16.7515 11.6474 16.3944L8.88125 13.6232C8.25215 12.993 8.69851 11.9167 9.58899 11.9167H17.417C17.9233 11.9167 18.3337 11.5063 18.3337 11.0001Z" fill="#495F6A"/>
</svg>
