<svg width="24" height="25" viewBox="0 0 24 25" fill="none" xmlns="http://www.w3.org/2000/svg">
<path d="M18.295 7.615C18.6844 7.22564 18.6844 6.59436 18.295 6.205C17.9056 5.81564 17.2744 5.81564 16.885 6.205L12.7071 10.3829C12.3166 10.7734 11.6834 10.7734 11.2929 10.3829L7.115 6.205C6.72564 5.81564 6.09436 5.81564 5.705 6.205C5.31564 6.59436 5.31564 7.22564 5.705 7.615L9.88289 11.7929C10.2734 12.1834 10.2734 12.8166 9.88289 13.2071L5.705 17.385C5.31564 17.7744 5.31564 18.4056 5.705 18.795C6.09436 19.1844 6.72564 19.1844 7.115 18.795L11.2929 14.6171C11.6834 14.2266 12.3166 14.2266 12.7071 14.6171L16.885 18.795C17.2744 19.1844 17.9056 19.1844 18.295 18.795C18.6844 18.4056 18.6844 17.7744 18.295 17.385L14.1171 13.2071C13.7266 12.8166 13.7266 12.1834 14.1171 11.7929L18.295 7.615Z" fill="#495F6A"/>
</svg>
