<svg width="24" height="24" viewBox="0 0 24 24" fill="none" xmlns="http://www.w3.org/2000/svg">
<path d="M16.5 2C16.5 1.44772 16.0523 1 15.5 1H4.5C3.4 1 2.5 1.9 2.5 3V16C2.5 16.5523 2.94772 17 3.5 17C4.05228 17 4.5 16.5523 4.5 16V4C4.5 3.44772 4.94772 3 5.5 3H15.5C16.0523 3 16.5 2.55228 16.5 2ZM19.5 5H8.5C7.4 5 6.5 5.9 6.5 7V21C6.5 22.1 7.4 23 8.5 23H19.5C20.6 23 21.5 22.1 21.5 21V7C21.5 5.9 20.6 5 19.5 5ZM19.5 20C19.5 20.5523 19.0523 21 18.5 21H9.5C8.94771 21 8.5 20.5523 8.5 20V8C8.5 7.44772 8.94772 7 9.5 7H18.5C19.0523 7 19.5 7.44772 19.5 8V20Z" fill="white"/>
</svg>
