<svg width="32" height="32" viewBox="0 0 32 32" fill="none" xmlns="http://www.w3.org/2000/svg">
<path d="M16 18C17.66 18 19 16.66 19 15V9C19 7.34 17.66 6 16 6C14.34 6 13 7.34 13 9V15C13 16.66 14.34 18 16 18Z" fill="#574B9B" fill-opacity="0.54"/>
<path fill-rule="evenodd" clip-rule="evenodd" d="M20.848 15.9892C20.8557 15.951 20.8651 15.9134 20.8759 15.8762C20.8921 15.8213 20.9116 15.7676 20.9343 15.7156C21.1131 15.306 21.489 15 21.9424 15C22.4923 15 22.9454 15.448 22.8674 15.9924C22.8487 16.1232 22.8263 16.2533 22.8002 16.3825C22.793 16.4186 22.7854 16.4547 22.7776 16.4906C22.4942 17.7908 21.8434 18.9942 20.8878 19.9497C19.8125 21.0251 18.4233 21.7144 16.9356 21.9286C16.9372 21.9522 16.9381 21.976 16.9381 22V24C16.9381 24.5523 16.4904 25 15.9381 25C15.3858 25 14.9381 24.5523 14.9381 24V22C14.9381 21.976 14.9389 21.9522 14.9406 21.9286C13.4529 21.7144 12.0637 21.0251 10.9883 19.9497C10.0328 18.9942 9.38201 17.7908 9.09862 16.4906C9.09078 16.4547 9.08322 16.4186 9.07594 16.3825C9.04991 16.2533 9.0275 16.1232 9.00876 15.9924C8.93081 15.448 9.38388 15 9.93379 15C10.3872 15 10.7631 15.306 10.9419 15.7156C10.9646 15.7676 10.9841 15.8213 11.0002 15.8762C11.0111 15.9134 11.0204 15.951 11.0281 15.9892C11.2215 16.9491 11.6938 17.839 12.3965 18.5416C13.3358 19.4809 14.6097 20.0086 15.9381 20.0086C17.2664 20.0086 18.5404 19.4809 19.4797 18.5416C20.1823 17.839 20.6547 16.9491 20.848 15.9892Z" fill="#574B9B" fill-opacity="0.54"/>
</svg>
