<svg width="20" height="20" viewBox="0 0 20 20" fill="none" xmlns="http://www.w3.org/2000/svg">
<path d="M12.5013 14.1673C12.5013 13.7071 12.8744 13.334 13.3346 13.334H15.0013C15.4615 13.334 15.8346 13.7071 15.8346 14.1673C15.8346 14.6276 15.4615 15.0007 15.0013 15.0007H13.3346C12.8744 15.0007 12.5013 14.6276 12.5013 14.1673ZM12.5013 7.50065C12.5013 7.04041 12.8744 6.66732 13.3346 6.66732H17.5013C17.9615 6.66732 18.3346 7.04041 18.3346 7.50065C18.3346 7.96089 17.9615 8.33398 17.5013 8.33398H13.3346C12.8744 8.33398 12.5013 7.96089 12.5013 7.50065ZM12.5013 10.834C12.5013 10.3737 12.8744 10.0007 13.3346 10.0007H16.668C17.1282 10.0007 17.5013 10.3737 17.5013 10.834C17.5013 11.2942 17.1282 11.6673 16.668 11.6673H13.3346C12.8744 11.6673 12.5013 11.2942 12.5013 10.834ZM2.5013 15.0007C2.5013 15.9173 3.2513 16.6673 4.16797 16.6673H9.16797C10.0846 16.6673 10.8346 15.9173 10.8346 15.0007V7.66732C10.8346 7.11503 10.3869 6.66732 9.83464 6.66732H3.5013C2.94902 6.66732 2.5013 7.11503 2.5013 7.66732V15.0007ZM4.16797 9.33398C4.16797 8.7817 4.61568 8.33398 5.16797 8.33398H8.16797C8.72025 8.33398 9.16797 8.7817 9.16797 9.33398V14.0007C9.16797 14.5529 8.72025 15.0007 8.16797 15.0007H5.16797C4.61568 15.0007 4.16797 14.5529 4.16797 14.0007V9.33398ZM8.62753 3.62688C8.43999 3.43934 8.18564 3.33398 7.92042 3.33398H5.41552C5.1503 3.33398 4.89595 3.43934 4.70841 3.62688L4.46086 3.87442C4.27333 4.06196 4.01897 4.16732 3.75376 4.16732H2.5013C2.04106 4.16732 1.66797 4.54041 1.66797 5.00065C1.66797 5.46089 2.04106 5.83398 2.5013 5.83398H10.8346C11.2949 5.83398 11.668 5.46089 11.668 5.00065C11.668 4.54041 11.2949 4.16732 10.8346 4.16732H9.58218C9.31697 4.16732 9.06261 4.06196 8.87508 3.87442L8.62753 3.62688Z" fill="white"/>
</svg>
