<svg width="32" height="32" viewBox="0 0 32 32" fill="none" xmlns="http://www.w3.org/2000/svg">
<path d="M15.99 6C10.47 6 6 10.48 6 16C6 21.52 10.47 26 15.99 26C21.52 26 26 21.52 26 16C26 10.48 21.52 6 15.99 6ZM16 24C11.58 24 8 20.42 8 16C8 11.58 11.58 8 16 8C20.42 8 24 11.58 24 16C24 20.42 20.42 24 16 24ZM19.5 15C20.33 15 21 14.33 21 13.5C21 12.67 20.33 12 19.5 12C18.67 12 18 12.67 18 13.5C18 14.33 18.67 15 19.5 15ZM12.5 15C13.33 15 14 14.33 14 13.5C14 12.67 13.33 12 12.5 12C11.67 12 11 12.67 11 13.5C11 14.33 11.67 15 12.5 15ZM16 21.5C17.8059 21.5 19.4016 20.6229 20.4006 19.2785C20.8208 18.7129 20.3483 18 19.6437 18H12.3563C11.6517 18 11.1792 18.7129 11.5994 19.2785C12.5984 20.6229 14.1941 21.5 16 21.5Z" fill="#574B9B" fill-opacity="0.54"/>
</svg>
