<svg width="18" height="18" viewBox="0 0 18 18" fill="none" xmlns="http://www.w3.org/2000/svg">
<path d="M8.48326 13.6394C8.80106 13.4476 9.19894 13.4476 9.51674 13.6394L11.606 14.9004C12.3633 15.3575 13.2975 14.6785 13.0966 13.817L12.5421 11.4403C12.4578 11.0788 12.5806 10.7003 12.8612 10.4573L14.7086 8.85689C15.3772 8.27768 15.0198 7.17942 14.1384 7.10464L11.7084 6.89848C11.3388 6.86712 11.0169 6.63379 10.8722 6.29229L9.92072 4.04737C9.57613 3.23434 8.42387 3.23434 8.07928 4.04737L7.12782 6.29229C6.98308 6.63379 6.66121 6.86712 6.29164 6.89848L3.86163 7.10464C2.98021 7.17942 2.6228 8.27768 3.29139 8.85689L5.13879 10.4573C5.41936 10.7003 5.54221 11.0788 5.45787 11.4403L4.90341 13.817C4.70245 14.6785 5.63668 15.3575 6.394 14.9004L8.48326 13.6394Z" fill="#FFB400"/>
</svg>
