<svg width="32" height="32" viewBox="0 0 32 32" fill="none" xmlns="http://www.w3.org/2000/svg">
<g clip-path="url(#clip0_3756_57946)">
<path d="M24.1007 15.1157C23.8078 14.8228 23.3329 14.8228 23.04 15.1157L15.4386 22.7171C13.8759 24.2798 11.3445 24.2798 9.78178 22.7171C8.21907 21.1544 8.21907 18.623 9.78178 17.0602L18.6206 8.22141C19.5964 7.2456 21.1803 7.2456 22.1561 8.22141C23.132 9.19722 23.132 10.7811 22.1561 11.7569L14.7315 19.1816C14.3426 19.5705 13.7062 19.5705 13.3173 19.1816C12.9284 18.7927 12.9284 18.1563 13.3173 17.7674L19.5045 11.5802C19.7974 11.2873 19.7974 10.8124 19.5045 10.5195C19.2116 10.2266 18.7367 10.2266 18.4438 10.5195L12.2567 16.7067C11.2808 17.6825 11.2808 19.2664 12.2567 20.2422C13.2325 21.218 14.8164 21.218 15.7922 20.2422L23.2168 12.8176C24.7795 11.2549 24.7795 8.72346 23.2168 7.16075C21.6541 5.59804 19.1227 5.59804 17.56 7.16075L8.72112 15.9996C6.57151 18.1492 6.57151 21.6282 8.72112 23.7778C10.8707 25.9274 14.3497 25.9274 16.4993 23.7778L24.1007 16.1764C24.3936 15.8835 24.3936 15.4086 24.1007 15.1157Z" fill="#574B9B" fill-opacity="0.54"/>
</g>
<defs>
<clipPath id="clip0_3756_57946">
<rect width="24" height="24" fill="white" transform="translate(4 4)"/>
</clipPath>
</defs>
</svg>
