<svg width="36" height="35" viewBox="0 0 36 35" fill="none" xmlns="http://www.w3.org/2000/svg">
<g clip-path="url(#clip0_3745_19159)">
<path d="M13.8751 17.2512C13.2451 17.8812 13.6913 18.9583 14.5822 18.9583H14.8867C15.439 18.9583 15.8867 19.406 15.8867 19.9583V22.3333C15.8867 22.8856 16.3344 23.3333 16.8867 23.3333H19.1159C19.6682 23.3333 20.1159 22.8856 20.1159 22.3333V19.9583C20.1159 19.406 20.5636 18.9583 21.1159 18.9583H21.4204C22.3113 18.9583 22.7575 17.8812 22.1275 17.2512L18.7084 13.8321C18.3179 13.4416 17.6847 13.4416 17.2942 13.8321L13.8751 17.2512Z" fill="#495F6A"/>
<path d="M28.7188 14.6423C27.7271 9.61107 23.3083 5.83398 18 5.83398C13.7854 5.83398 10.125 8.22565 8.30208 11.7257C3.9125 12.1923 0.5 15.9111 0.5 20.4173C0.5 25.2444 4.42292 29.1673 9.25 29.1673H28.2083C32.2333 29.1673 35.5 25.9007 35.5 21.8757C35.5 18.0257 32.5104 14.9048 28.7188 14.6423ZM28.2083 26.2507H9.25C6.02708 26.2507 3.41667 23.6402 3.41667 20.4173C3.41667 17.4277 5.64792 14.934 8.60833 14.6277L9.38854 14.5475C9.97917 14.5475 10.3267 14.5475 10.5333 13.7746L10.8979 13.0819C12.2833 10.4132 14.9958 8.75065 18 8.75065C21.8208 8.75065 25.1167 11.4632 25.8604 15.2111L26.0792 16.3048C26.0792 17.2045 26.75 17.5007 27.4135 17.4788L28.5292 17.559C30.8042 17.7048 32.5833 19.6152 32.5833 21.8757C32.5833 24.2819 30.6146 26.2507 28.2083 26.2507Z" fill="#495F6A"/>
</g>
<defs>
<clipPath id="clip0_3745_19159">
<rect width="35" height="35" fill="white" transform="translate(0.5)"/>
</clipPath>
</defs>
</svg>
