<svg width="24" height="24" viewBox="0 0 24 24" fill="none" xmlns="http://www.w3.org/2000/svg">
<path d="M11.4833 18.0819C11.8011 17.8901 12.1989 17.8901 12.5167 18.0819L16.151 20.2754C16.9083 20.7325 17.8425 20.0535 17.6416 19.192L16.6771 15.0578C16.5928 14.6963 16.7156 14.3178 16.9962 14.0748L20.2086 11.2919C20.8772 10.7127 20.5198 9.61442 19.6384 9.53964L15.4109 9.18098C15.0413 9.14962 14.7194 8.91629 14.5747 8.57479L12.9207 4.67237C12.5761 3.85934 11.4239 3.85934 11.0793 4.67237L9.42532 8.57479C9.28058 8.91629 8.95871 9.14962 8.58914 9.18098L4.36163 9.53964C3.4802 9.61442 3.1228 10.7127 3.79139 11.2919L7.00379 14.0748C7.28436 14.3178 7.40721 14.6963 7.32287 15.0578L6.35841 19.192C6.15745 20.0535 7.09168 20.7325 7.849 20.2754L11.4833 18.0819Z" fill="white"/>
</svg>
